<svg xmlns="http://www.w3.org/2000/svg" viewBox="0 0 287.49 176.09"><defs><style>.cls-1{fill:#264653;}.cls-2{fill:#edd8b2;}.cls-3{fill:#f9e3b7;}.cls-4{fill:#e0bf7e;}.cls-5{fill:#e8d2ac;}.cls-6{fill:none;stroke:#f4a261;stroke-linecap:round;stroke-miterlimit:10;stroke-width:2px;}</style></defs><g id="Capa_2" data-name="Capa 2"><g id="glos"><path class="cls-1" d="M253.33,27.43l33.84,107.49a6.85,6.85,0,0,1-5.05,8.73l-129.68,28.7s-9.63,8.42-29.8,0l-117.33-27a6.84,6.84,0,0,1-5-8.75l34.85-109a6.84,6.84,0,0,1,8.88-4.34l95.2,35L244.63,23A6.85,6.85,0,0,1,253.33,27.43Z"/><path class="cls-2" d="M59.7,3.36,41.85,28.08,8.17,139.23S16,123.51,28.38,112.28Z"/><path class="cls-2" d="M226.66,0l20.65,24.71L281,138.11s-23.58-23.58-28.07-24.7Z"/><path class="cls-3" d="M226.66,0l26.26,113.41c-56.13,12.35-115.64,51.64-115.64,51.64-38.17-30.31-108.9-52.77-108.9-52.77C29.5,103.3,59.7,3.36,59.7,3.36s58.27,28,79.56,54.91C139.26,58.27,171.75,15.69,226.66,0Z"/><path class="cls-4" d="M137.84,156.63l-.1-23.76,0-23.76c0-7.92-.19-15.84.2-23.76s.86-15.82,1.85-23.72h.3c.66,7.93.81,15.86.85,23.78s-.51,15.83-.8,23.74l-.95,23.74-1.1,23.74Z"/><path class="cls-5" d="M7.79,139.39l.16-.28c.1-.18,10.24-18.11,20.26-27l.11-.1.14,0c.76.26,76.54,26.07,108.84,52.69,3.52-2.3,64.63-41.82,115.58-51.58l.09,0,.09.06c.19.12,19.23,12.51,28.13,24.76l.22.3L151.86,168.68l-.08,0a42.78,42.78,0,0,0-14.19-2.47,32.64,32.64,0,0,0-12.83,2.47l-.08,0Z"/><path class="cls-5" d="M28.38,112.28s76.34,25.83,108.9,52.77c0,0,62.87-41.54,115.64-51.64,0,0,19.09,12.35,28.07,24.7L151.88,168.42a42.51,42.51,0,0,0-14.29-2.49,33,33,0,0,0-12.93,2.49L8.17,139.23s10.1-18,20.21-26.95m-.12-.56-.22.19C18,120.85,7.83,138.8,7.73,139l-.32.57.64.16,116.49,29.19.16,0,.16-.07a32.32,32.32,0,0,1,12.73-2.45,42.13,42.13,0,0,1,14.1,2.46l.15.05.15,0,129.12-30.32.73-.17-.44-.61c-8.94-12.28-28-24.7-28.21-24.82l-.16-.11-.2,0c-50.37,9.64-110.65,48.35-115.51,51.51-32.42-26.61-108-52.36-108.78-52.62l-.28-.09Z"/><path class="cls-6" d="M124.66,169.54s11.5-6.73,27.22,0"/></g></g></svg>