<svg xmlns="http://www.w3.org/2000/svg" xmlns:xlink="http://www.w3.org/1999/xlink" viewBox="0 0 428.55 273.14"><defs><style>.cls-1{fill:#f4a261;stroke-miterlimit:10;stroke-width:3px;stroke:url(#Degradado_sin_nombre_21);}.cls-2{fill:#fff;}.cls-3{fill:#798b70;}.cls-4{fill:#a9aa96;}.cls-5,.cls-7{fill:#f6caa4;}.cls-6{fill:#e99e63;}.cls-7{font-size:31.92px;font-family:FranklinGothic-Medium, Franklin Gothic Medium;font-weight:500;}.cls-8{fill:#28b57d;}.cls-9{fill:#2673ab;}.cls-10{fill:#264653;}.cls-11{fill:#e76f51;}</style><radialGradient id="Degradado_sin_nombre_21" cx="216.64" cy="191.49" r="77.92" gradientUnits="userSpaceOnUse"><stop offset="0" stop-color="#6fa2c1"/><stop offset="1" stop-color="#ea8d4e"/></radialGradient></defs><g id="Capa_2" data-name="Capa 2"><g id="cabeza"><path class="cls-1" d="M200.24,271.45,195.07,249a5,5,0,0,0-4.19-3.88c-3.71-.46-9.08.59-14.37,1.25,0,0-10.1,1-15.1-.82a3.8,3.8,0,0,1-2.43-2.83,14.36,14.36,0,0,1-.26-5.58c.66-2.64.66-6.59-.19-7.88-.45-.7-3.11-4.64-3.77-4.64s1.32-4.61,2-4.61-4-2.64-4-3.3a27,27,0,0,1,2-5.27c.66-1.32,0-5.27,0-5.27s-9.22-3.3-10.54-7.91a134.8,134.8,0,0,1,12.52-21.75,19.5,19.5,0,0,0,1.32-5.93c0-2.64-.66-14.5.66-16.48s8.57-37.56,52.06-42.18,65.91,17.14,76.45,50.09c10.22,31.92-22.86,65.08-42.32,70.12a2.05,2.05,0,0,0-1.47,2.36L249,264.2Z"/><path class="cls-2" d="M77.06,142.45c2.2,22.32-15.88,32.14-35.91,32.29C19.13,174.9,8,159,1.27,142.45c-7.25-17.8,17.85-32.3,39.88-32.3S74.74,118.9,77.06,142.45Z"/><path class="cls-2" d="M175.12,29c-3.05,18.91-18.29,32.29-40.86,32.29S95.55,46.7,93.4,29C90.77,7.25,111.7,0,134.26,0S178.42,8.57,175.12,29Z"/><path class="cls-2" d="M428.45,87.86c1.75,18.31-19.79,33-52.24,34.37-28.82,1.23-41.45-16.18-44.82-34.37-3.46-18.67,15.5-31.68,44.82-34.38C404.94,50.84,426.64,69,428.45,87.86Z"/><path class="cls-2" d="M106.72,137.83c1.82,6.68-4,12.53-8.9,12.53s-8.89-5.61-8.89-12.53,4-12.52,8.89-12.52S104.74,130.58,106.72,137.83Z"/><path class="cls-2" d="M184,70.53c-3.86,5.74-13.51,6-15.3,1.46-2.11-5.43.52-8.06,3.66-14.92,2.88-6.29,12.08-5.18,15.29-1.46S188.16,64.29,184,70.53Z"/><path class="cls-2" d="M342.85,131.33c1.85,5.86-2,11.12-8.09,11.12s-11.46-4.72-14.15-11.12c-2.39-5.66,1.94-9.1,8.08-9.1S340.83,124.93,342.85,131.33Z"/><ellipse class="cls-2" cx="114.96" cy="126.63" rx="2.31" ry="3.95" transform="translate(-35.84 45.94) rotate(-19.61)"/><path class="cls-2" d="M195.45,76.46c-.63,2.09-2.14,3.48-3.36,3.11s-1.91-2.45-1.05-4.45c.56-1.31,2.46-4,3.36-3.11A3.91,3.91,0,0,1,195.45,76.46Z"/><path class="cls-2" d="M316.37,143.15c.66,2.64-1.48,3.3-3.3,3.3a3.3,3.3,0,0,1,0-6.59C314.89,139.86,315.71,140.52,316.37,143.15Z"/><rect class="cls-3" x="347.22" y="67.94" width="58.23" height="26.7" transform="translate(14.17 211.95) rotate(-32.03)"/><rect class="cls-4" x="349.63" y="69.96" width="53.41" height="22.65" transform="translate(14.17 211.95) rotate(-32.03)"/><circle class="cls-3" cx="376.34" cy="81.29" r="10.34"/><circle class="cls-3" cx="391.85" cy="71.59" r="1.91"/><circle class="cls-3" cx="360.54" cy="91.19" r="1.91"/><path class="cls-4" d="M374.85,84.89a3.09,3.09,0,0,0,4,.4c1.61-1,2.32-2.22,1.38-3.72-.67-1.07-1.69-1.51-4.14-.73s-4.05.87-5.07-.76-.38-3.42,1.57-4.65c2.58-1.61,4.26-.57,4.94.3l-.87.54c-.89-.8-2-1.13-3.64-.11s-1.76,2.3-1.15,3.28,1.65,1.27,3.82.55c3.21-1,4.53-.48,5.42.94,1.11,1.79.49,3.65-1.87,5.1-2.08,1.28-4,.88-5.23-.61Zm5,2.77-8.25-13.19.78-.49,8.26,13.19Z"/><rect class="cls-3" x="351.57" y="83.68" width="58.23" height="26.7" transform="translate(-5.27 23.71) rotate(-3.54)"/><rect class="cls-4" x="353.98" y="85.71" width="53.41" height="22.65" transform="translate(-5.27 23.71) rotate(-3.54)"/><circle class="cls-3" cx="380.69" cy="97.04" r="10.34"/><circle class="cls-3" cx="398.95" cy="95.9" r="1.91"/><circle class="cls-3" cx="362.08" cy="98.21" r="1.91"/><path class="cls-4" d="M377.73,99.55a3.08,3.08,0,0,0,3.31,2.26c1.91-.12,3.1-.85,3-2.61-.07-1.27-.76-2.14-3.29-2.62s-4-1.17-4.09-3.08,1.3-3.2,3.59-3.34c3.05-.19,4,1.52,4.2,2.61l-1,.07c-.4-1.14-1.24-2-3.14-1.84s-2.65,1.19-2.58,2.34.85,1.91,3.1,2.31c3.31.61,4.21,1.73,4.31,3.4.13,2.1-1.31,3.44-4.07,3.59-2.44.14-4-1.15-4.31-3Zm3.1,4.84-1-15.53.92-.06,1,15.54Z"/><circle class="cls-5" cx="41.38" cy="142.15" r="22.31"/><circle class="cls-6" cx="41.38" cy="142.15" r="18.87"/><text class="cls-7" transform="matrix(0.99, 0.12, -0.12, 0.99, 30.94, 150.4)">$</text><polygon class="cls-8" points="121.87 23.59 113.05 23.59 113.05 14.78 107.18 14.78 107.18 23.59 98.36 23.59 98.36 29.47 107.18 29.47 107.18 38.28 113.05 38.28 113.05 29.47 121.87 29.47 121.87 23.59"/><rect class="cls-9" x="134.15" y="4.49" width="5.11" height="20.45" transform="translate(116.02 150.65) rotate(-87.49)"/><circle class="cls-9" cx="137.05" cy="6.9" r="3.12"/><circle class="cls-9" cx="136.36" cy="22.73" r="3.12"/><rect class="cls-10" x="123.75" y="37.54" width="5.41" height="21.62" transform="translate(174.8 -78.11) rotate(90)"/><polygon class="cls-11" points="164.94 43.83 158.65 38.05 164.43 31.76 160.24 27.91 154.46 34.19 148.17 28.41 144.32 32.6 150.61 38.38 144.82 44.67 149.02 48.52 154.8 42.24 161.08 48.02 164.94 43.83"/></g></g></svg>