<svg xmlns="http://www.w3.org/2000/svg" viewBox="0 0 313.53 275.68"><defs><style>.cls-1{fill:#28b57d;}.cls-2{fill:#fff;}.cls-3{fill:#f4a261;}.cls-4{fill:#264653;}.cls-5{fill:#e76f51;}.cls-6{fill:#d3624c;}</style></defs><g id="Capa_2" data-name="Capa 2"><g id="rompe"><path class="cls-1" d="M126.56,246.28C125.4,231,111,218.79,93.48,218.79S61.55,231,60.39,246.28H33.16V218.79h-2C15.08,218.79,2,207.36,2,193.3s13.08-25.49,29.16-25.49h2V140.32H60.39c1.16,15.34,15.56,27.49,33.09,27.49s31.92-12.15,33.08-27.49h27.23v27.49h2c16.08,0,29.16,11.44,29.16,25.49s-13.08,25.49-29.16,25.49h-2v27.49Z"/><path class="cls-2" d="M151.79,142.32v27.49h4c15,0,27.16,10.54,27.16,23.49s-12.18,23.49-27.16,23.49h-4v27.49H128.35c-2.2-15.48-17-27.49-34.87-27.49s-32.68,12-34.88,27.49H35.16V216.79h-4C16.18,216.79,4,206.25,4,193.3s12.18-23.49,27.16-23.49h4V142.32H58.6c2.2,15.49,17,27.49,34.88,27.49s32.67-12,34.87-27.49h23.44m4-4H124.64c0,15.19-14,27.49-31.16,27.49s-31.16-12.3-31.16-27.49H31.16v27.49C14,165.81,0,178.12,0,193.3s14,27.49,31.16,27.49v27.49H62.32c0-15.18,13.95-27.49,31.16-27.49s31.16,12.31,31.16,27.49h31.15V220.79C173,220.79,187,208.48,187,193.3S173,165.81,155.79,165.81V138.32Z"/><path class="cls-3" d="M94.22,162.93c-16.07,0-29.15-11.43-29.15-25.48v-2H33.91V111.9C51.26,111,65.07,98.13,65.07,82.47S51.26,54,33.91,53V29.49H65.07v-2C65.07,13.43,78.15,2,94.22,2s29.16,11.43,29.16,25.49v2h31.16V53c-17.35.92-31.16,13.77-31.16,29.44S137.19,111,154.54,111.9v23.55H123.38v2C123.38,151.5,110.3,162.93,94.22,162.93Z"/><path class="cls-2" d="M94.22,4c15,0,27.16,10.54,27.16,23.49v4h31.16V51.18C135,53,121.38,66.32,121.38,82.47S135,112,152.54,113.75v19.7H121.38v4c0,13-12.18,23.48-27.16,23.48S67.07,150.4,67.07,137.45v-4H35.91v-19.7C53.42,112,67.07,98.62,67.07,82.47S53.42,53,35.91,51.18V31.49H67.07v-4C67.07,14.54,79.25,4,94.22,4m0-4C77,0,63.07,12.31,63.07,27.49H31.91V55c17.21,0,31.16,12.31,31.16,27.49S49.12,110,31.91,110v27.49H63.07c0,15.18,13.95,27.48,31.15,27.48s31.16-12.3,31.16-27.48h31.16V110c-17.21,0-31.16-12.31-31.16-27.49S139.33,55,156.54,55V27.49H125.38C125.38,12.31,111.43,0,94.22,0Z"/><path class="cls-4" d="M250.2,135.45C249,120.11,234.64,108,217.11,108S185.19,120.11,184,135.45H156.8V108h-2c-16.08,0-29.16-11.44-29.16-25.49S138.72,57,154.8,57h2V29.49H184C185.19,44.82,199.59,57,217.11,57S249,44.82,250.2,29.49h27.23V57h2c16.08,0,29.16,11.43,29.16,25.49S295.51,108,279.43,108h-2v27.49Z"/><path class="cls-2" d="M275.43,31.49V59h4c15,0,27.16,10.54,27.16,23.49S294.41,106,279.43,106h-4v27.49H252C249.79,118,235,106,217.11,106s-32.67,12-34.87,27.49H158.8V106h-4c-15,0-27.16-10.54-27.16-23.49S139.82,59,154.8,59h4V31.49h23.44C184.44,47,199.24,59,217.11,59S249.79,47,252,31.49h23.44m4-4H248.27c0,15.18-14,27.49-31.16,27.49S186,42.67,186,27.49H154.8V55c-17.21,0-31.16,12.31-31.16,27.49S137.59,110,154.8,110v27.49H186c0-15.19,13.95-27.49,31.15-27.49s31.16,12.3,31.16,27.49h31.16V110c17.21,0,31.16-12.31,31.16-27.49S296.64,55,279.43,55V27.49Z"/><path class="cls-5" d="M211,275.18a34.76,34.76,0,0,1-14.8-3.39c-15.57-7.39-22.95-24.57-16.44-38.28l.21-.45-28.7-13.63L162.88,195a35.81,35.81,0,0,0,14.77,3.27h0c11.62,0,21.65-5.91,26.16-15.42a26.76,26.76,0,0,0,.1-22.31,34.27,34.27,0,0,0-16.57-17.09L199,119l28.7,13.63.22-.45c4.34-9.16,14-14.85,25.26-14.85a34.76,34.76,0,0,1,14.8,3.39,33.35,33.35,0,0,1,16.53,16.79,25.82,25.82,0,0,1-.09,21.49l-.21.45,28.7,13.63-11.59,24.42a35.82,35.82,0,0,0-14.78-3.27c-11.62,0-21.65,5.9-26.16,15.42a26.78,26.78,0,0,0-.11,22.3,34.32,34.32,0,0,0,16.58,17.1l-11.6,24.42-28.7-13.63-.22.45C231.94,269.49,222.25,275.18,211,275.18Z"/><path class="cls-6" d="M253.13,117.87a34.18,34.18,0,0,1,14.58,3.34A32.83,32.83,0,0,1,284,137.75a25.37,25.37,0,0,1-.08,21.08l-.43.9.9.43,27.8,13.2L301,196.88a36.19,36.19,0,0,0-14.53-3.11c-11.82,0-22,6-26.62,15.7-6.73,14.2.56,31.87,16.26,39.84L265,272.84l-27.8-13.2-.9-.42-.43.9c-4.26,9-13.77,14.56-24.81,14.56a34.18,34.18,0,0,1-14.58-3.34c-15.33-7.28-22.6-24.15-16.21-37.62l.43-.9-.9-.43L152,219.19l11.17-23.53a36,36,0,0,0,14.53,3.12c11.82,0,22-6,26.61-15.7a27.25,27.25,0,0,0,.11-22.72A34.68,34.68,0,0,0,188,143.24l11.17-23.53L227,132.9l.9.43.43-.9c4.26-9,13.77-14.56,24.81-14.56m0-1c-11,0-21.13,5.48-25.72,15.13l-28.7-13.63-12,25.33c15.85,7.52,23.32,25,16.68,39-4.58,9.65-14.68,15.13-25.71,15.13a34.9,34.9,0,0,1-15-3.44l-12,25.33,28.71,13.62c-6.64,14,.83,31.43,16.68,39a34.9,34.9,0,0,0,15,3.44c11,0,21.13-5.48,25.71-15.13l28.71,13.62,12-25.32c-15.85-7.52-23.32-25-16.68-38.95,4.58-9.65,14.68-15.13,25.71-15.13a35,35,0,0,1,15,3.43l12-25.32-28.71-13.62c6.64-14-.83-31.43-16.68-38.95a34.93,34.93,0,0,0-15-3.44Z"/></g></g></svg>