<svg xmlns="http://www.w3.org/2000/svg" viewBox="0 0 225.19 289.29"><defs><style>.cls-1,.cls-13,.cls-16{fill:#a56f46;}.cls-1,.cls-12,.cls-13,.cls-3{stroke:#a56f46;}.cls-1,.cls-2,.cls-3{stroke-miterlimit:10;}.cls-1,.cls-12,.cls-13,.cls-2,.cls-3{stroke-width:0.25px;}.cls-2{fill:#996542;stroke:#996542;}.cls-12,.cls-15,.cls-3{fill:#c2824e;}.cls-4{fill:#dbd3ce;}.cls-5{fill:#f2eeeb;}.cls-6{fill:#264653;}.cls-7{fill:#2a9d8f;}.cls-8{fill:#e76f51;}.cls-9{fill:#e9c46a;}.cls-10{fill:#4f4e4d;}.cls-11{fill:#e4e860;}.cls-12,.cls-13{stroke-linejoin:round;}.cls-14{fill:#c9c0b9;}</style></defs><g id="Capa_2" data-name="Capa 2"><g id="tiroconarco"><polygon class="cls-1" points="207.35 289.1 225 289.1 170.93 167.44 157.91 174.68 207.35 289.1"/><polygon class="cls-2" points="207.35 289.1 203.33 288.41 156.83 176.06 157.91 174.68 207.35 289.1"/><polygon class="cls-3" points="155.75 289.1 173.4 289.1 163.32 183.12 148.18 188.36 155.75 289.1"/><polygon class="cls-1" points="143.85 190.32 148.18 188.36 155.75 289.1 152.51 287.79 143.85 190.32"/><polygon class="cls-1" points="75.08 287.88 89.79 289.1 114.66 197.18 98.96 197.18 75.08 287.88"/><polygon class="cls-3" points="71.4 286.66 95.19 198.4 98.96 197.18 75.08 287.88 71.4 286.66"/><polygon class="cls-3" points="85.22 183.12 93.55 183.12 115.74 201.51 82.22 197.18 85.22 183.12"/><polygon class="cls-3" points="81.35 183.12 85.22 183.12 82.22 197.18 77.05 197.18 81.35 183.12"/><ellipse class="cls-4" cx="144.8" cy="101.41" rx="103.79" ry="56.78" transform="translate(4.49 208.95) rotate(-72.47)"/><ellipse class="cls-5" cx="141.19" cy="100.27" rx="103.79" ry="53" transform="translate(3.06 204.71) rotate(-72.47)"/><ellipse class="cls-6" cx="140.02" cy="100.68" rx="90.95" ry="51.01" transform="translate(1.84 203.88) rotate(-72.47)"/><ellipse class="cls-7" cx="136" cy="100.98" rx="69.59" ry="38.23" transform="translate(-1.25 200.26) rotate(-72.47)"/><ellipse class="cls-8" cx="131.88" cy="99.57" rx="44.62" ry="24.12" transform="translate(-2.78 195.34) rotate(-72.47)"/><ellipse class="cls-9" cx="128.49" cy="99.85" rx="22.17" ry="11.04" transform="translate(-5.41 192.31) rotate(-72.47)"/><path class="cls-10" d="M6.38,99.86H127a0,0,0,0,1,0,0v2a1.28,1.28,0,0,1-1.28,1.28H6.38a0,0,0,0,1,0,0V99.86A0,0,0,0,1,6.38,99.86Z"/><path class="cls-11" d="M8.93,101.48H20.42s.64-1.08-2.55-2.16a28.82,28.82,0,0,0-7.66-1.08S8.93,98.24,8.93,101.48Z"/><path class="cls-11" d="M8.93,103.1H20.26s-1.11,3.25-6.22,4.33S8.93,104.18,8.93,103.1Z"/><path class="cls-11" d="M.61,99.43h6a.39.39,0,0,1,.39.39v3.26a.46.46,0,0,1-.46.46H2.39A2.39,2.39,0,0,1,0,101.14V100a.61.61,0,0,1,.61-.61Z"/><polygon class="cls-12" points="133.04 211.78 168.73 216.1 168.73 198.91 131.96 194.48 133.04 211.78"/><polygon class="cls-13" points="168.73 216.1 165.48 218.27 128.72 213.94 133.04 211.78 168.73 216.1"/><polygon class="cls-12" points="127.63 195.56 128.72 213.94 133.04 211.78 131.96 194.48 127.63 195.56"/><circle class="cls-14" cx="156.83" cy="210.16" r="2.16"/><circle class="cls-14" cx="164.4" cy="202.59" r="2.16"/><path class="cls-15" d="M196.44,98.61s-.92-24.49,4.07-42.44C200.51,56.17,201.17,88,196.44,98.61Z"/><path class="cls-16" d="M203.07,103.1l-6.67-4.49s3.4-6.1,4.06-42.44l6.08-3.89S209.82,72.83,203.07,103.1Z"/></g></g></svg>