<svg xmlns="http://www.w3.org/2000/svg" viewBox="0 0 209.43 265.35"><defs><style>.cls-1{fill:#f4f4f4;stroke:#ccc;}.cls-1,.cls-2,.cls-3{stroke-miterlimit:10;}.cls-2,.cls-3{fill:none;stroke-width:1.1px;}.cls-2{stroke:#2673ab;}.cls-3{stroke:#e76f51;}.cls-4{fill:#f2c7c7;}.cls-5{fill:#e9c46a;}.cls-6{fill:#d3d3d3;}.cls-7{fill:#d8bfbf;}.cls-8{fill:#8c8c8c;}</style></defs><g id="Capa_2" data-name="Capa 2"><g id="lapiz"><rect class="cls-1" x="10.82" y="8.05" width="186.72" height="249.26" transform="translate(-10.93 9.36) rotate(-4.89)"/><line class="cls-2" x1="3.96" y1="62.88" x2="190.55" y2="46.92"/><line class="cls-2" x1="2.64" y1="41.01" x2="189.23" y2="25.05"/><line class="cls-2" x1="6.92" y1="84.61" x2="192.42" y2="68.74"/><line class="cls-2" x1="9.56" y1="128.35" x2="196.15" y2="112.39"/><line class="cls-2" x1="8.24" y1="106.48" x2="194.83" y2="90.52"/><line class="cls-2" x1="12.52" y1="150.08" x2="198.02" y2="134.21"/><line class="cls-2" x1="15.16" y1="193.82" x2="201.75" y2="177.85"/><line class="cls-2" x1="13.84" y1="171.95" x2="200.43" y2="155.98"/><line class="cls-2" x1="18.12" y1="215.55" x2="203.62" y2="199.68"/><line class="cls-2" x1="20.53" y1="237.32" x2="206.03" y2="221.45"/><line class="cls-3" x1="23.56" y1="14.49" x2="44.81" y2="262.84"/><path class="cls-4" d="M202.73,53.25,209.3,41.5a1,1,0,0,0,0-1.08c-1-1.42-4.32-5.21-14.39-8a1,1,0,0,0-1.16.47l-6.84,11.56Z"/><path class="cls-5" d="M106.5,190l.14-1.86L176.1,62.25s13.46,7.4,17.14,9.37l-69,125.64-1.37,1.17-1.56-1.82-4.22-.32-2.77-2.76-2.57.23s-1.75.72-2.43-1.46l-1.08-2.63Z"/><path class="cls-6" d="M193.24,71.62l9.86-17.94a29.07,29.07,0,0,0-16.71-9.35L176.1,62.25Z"/><polygon class="cls-7" points="106.5 189.97 100.74 215.45 103.99 217.4 122.85 198.43 121.29 196.61 117.29 196.1 114.53 193.34 110.69 193.47 108.45 189.48 106.5 189.97"/><path class="cls-8" d="M100.74,215.45l-.71,4.41a.26.26,0,0,0,.41.24l3.55-2.7Z"/></g></g></svg>