<svg xmlns="http://www.w3.org/2000/svg" viewBox="0 0 267 305.07"><defs><style>.cls-1{fill:#2673ab;}.cls-2{fill:#246d9b;}.cls-3{fill:#f7eddc;}.cls-4{fill:#e76f51;}.cls-12,.cls-15,.cls-5,.cls-8{fill:none;stroke-linecap:round;stroke-width:2px;}.cls-5{stroke:#246d9b;}.cls-12,.cls-15,.cls-5{stroke-linejoin:bevel;}.cls-6{fill:#e9c46a;}.cls-7{fill:#d6b065;}.cls-8{stroke:#d6b065;stroke-miterlimit:10;}.cls-9{fill:#264653;}.cls-10{fill:#f4a261;}.cls-11{fill:#e8955d;}.cls-12{stroke:#e8955d;}.cls-13{fill:#2a9d8f;}.cls-14{fill:#2a9383;}.cls-15{stroke:#2a9383;}</style></defs><g id="Capa_2" data-name="Capa 2"><g id="ref"><polygon class="cls-1" points="14.89 193.93 144.73 249.98 253.55 200.62 130.72 153.77 14.89 193.93"/><path class="cls-2" d="M144.73,250s28,27.08-3.74,54.17l114-53.24s28-24.93-1.4-50.3Z"/><path class="cls-3" d="M14.89,193.93l129.84,56c27.09,32.69-3.74,54.17-3.74,54.17L11.57,246.73a1.78,1.78,0,0,1-.29-3.09C17.67,239.28,31.1,225.61,14.89,193.93Z"/><path class="cls-4" d="M46.53,222l20.18,7.56a1.18,1.18,0,0,1,.73,1.36l-4.56,20a.76.76,0,0,1-1.34.3l-8.82-11-10.91,3.36a.77.77,0,0,1-1-.89L45,222.83A1.17,1.17,0,0,1,46.53,222Z"/><path class="cls-5" d="M14.89,193.93l129.84,56c27.09,32.69-3.74,54.17-3.74,54.17L11.58,246.64a2.2,2.2,0,0,1,1.33-4.16l.12,0"/><polygon class="cls-6" points="13.49 121.57 117.64 183.66 254.95 143.49 150.33 90.25 13.49 121.57"/><path class="cls-7" d="M13.49,121.57s-30.36,25.28,0,55.83l104.15,62.3s-30.82-28,0-56Z"/><path class="cls-3" d="M255,143.49,117.64,183.66c-28.95,27.09-2.13,53.85-2.13,53.85l139-42.06S229.26,172.92,255,143.49Z"/><path class="cls-8" d="M255,143.49,117.64,183.66c-28.95,27.09-2.13,53.85-2.13,53.85l139-42.06s2.81-.12-1.86-2.92"/><path class="cls-9" d="M204.7,184l24.62-6.16a.74.74,0,0,1,.91.69l.88,22.73a.42.42,0,0,1-.58.4l-10.61-4.42L209,209.63a.42.42,0,0,1-.72-.21l-4.1-24.63A.73.73,0,0,1,204.7,184Z"/><path class="cls-3" d="M245.14,97.26,134.92,132.75c-20.08,21-.47,41.57-.47,41.57l108.82-36S224.59,122.48,245.14,97.26Z"/><polygon class="cls-10" points="50.85 85.11 134.92 132.75 245.14 97.25 157.38 51.52 50.85 85.11"/><path class="cls-11" d="M50.86,85.11s-22.89,18.1,0,41.51l83.59,47.7s-19.61-21.49.47-41.57Z"/><path class="cls-12" d="M245.14,97.26,135.41,132.59a2.11,2.11,0,0,0-.84.53c-16.92,18.13-4.56,35.82-1,40.18a2,2,0,0,0,2.11.62L242,139.52a2,2,0,0,0,.07-3.69l-.14,0"/><path class="cls-13" d="M138.94.31,231.6,37l-85.94,43.9L37.31,41.68,135.58.35A4.44,4.44,0,0,1,138.94.31Z"/><path class="cls-14" d="M144.73,122.94,238.14,75.3S250.28,48.22,231.6,37l-85.94,43.9S170,100.52,144.73,122.94Z"/><path class="cls-3" d="M35.91,82.31s19.15-13.37,4-39.38l105.78,38s24.76,20.08-.93,42Z"/><path class="cls-15" d="M37.78,42.14,145.66,80.91c24.29,23.35-.93,42-.93,42L35.44,82.78S34.51,80,39.18,80"/><path class="cls-4" d="M51.54,73.45l16,4.8a1.32,1.32,0,0,1,.92,1.44l-2.56,18a.25.25,0,0,1-.44.13l-8-8.93-8,4.45a.26.26,0,0,1-.38-.24l.83-18.4A1.33,1.33,0,0,1,51.54,73.45Z"/></g></g></svg>